<?xml version="1.0" encoding="utf-8"?>
<!-- Generator: Adobe Illustrator 26.0.3, SVG Export Plug-In . SVG Version: 6.00 Build 0)  -->
<svg version="1.0" id="katman_1" xmlns="http://www.w3.org/2000/svg" xmlns:xlink="http://www.w3.org/1999/xlink" x="0px" y="0px"
	 viewBox="0 0 600 450" style="enable-background:new 0 0 600 450;" xml:space="preserve">
<style type="text/css">
	.st0{fill:#4BAD33;}
</style>
<path class="st0" d="M132.4,272.5c-2.3,1.3-3.1,4.3-1.8,6.6c0,0,0,0,0,0l4.8,8.4c1.3,2.3,4.3,3.1,6.6,1.8c0,0,0,0,0,0l59.8-34.5
	c-4-5.1-7.7-10.4-10.9-16L132.4,272.5z M175,177.2h-62.9c-2.7,0-4.8,2.2-4.8,4.8v9.6c0,2.7,2.2,4.8,4.8,4.8h64.2
	C175.3,190.1,175,183.6,175,177.2z M132.4,101.1l51.3,29.6c2.4-6,5.3-11.8,8.5-17.3l-50.2-29c-2.3-1.3-5.3-0.5-6.6,1.8c0,0,0,0,0,0
	l-4.8,8.4C129.3,96.8,130.1,99.8,132.4,101.1z M467.8,101.1c2.3-1.3,3.1-4.3,1.8-6.6c0,0,0,0,0,0l-4.8-8.4c-1.3-2.3-4.3-3.1-6.6-1.8
	c0,0,0,0,0,0l-50.3,29c3.3,5.5,6.2,11.3,8.6,17.3L467.8,101.1z M488.2,177.2h-62.7c0,6.5-0.8,12.9-1.7,19.3h64.4
	c2.7,0,4.8-2.2,4.8-4.8V182C493,179.3,490.8,177.2,488.2,177.2z M467.8,272.5l-58.7-33.9c-3.2,5.6-6.9,10.9-10.9,16l60,34.6
	c2.3,1.3,5.3,0.5,6.6-1.8l4.8-8.4C470.9,276.7,470.1,273.8,467.8,272.5z M300.1,109.6c-37.2,0-67.5,30.3-67.5,67.5
	c0,5.3,4.3,9.6,9.6,9.6c5.3,0,9.6-4.3,9.6-9.6c0-26.6,21.6-48.2,48.2-48.2c5.3,0,9.6-4.3,9.6-9.6C309.8,114,305.5,109.6,300.1,109.6
	z M300.1,71.1c-62.1,0-106.2,50.4-106.1,106.2c0,26.7,9.9,51,26.3,69.6c15.5,17.6,30.3,46.4,31.6,55.6l0,45.3c0,1.9,0.6,3.7,1.6,5.3
	l14.8,22.2c1.8,2.7,4.8,4.3,8,4.3h47.5c3.2,0,6.2-1.6,8-4.3l14.8-22.2c1-1.6,1.6-3.4,1.6-5.3l0-45.3c1.4-9.5,16.3-38.1,31.6-55.6
	c16.3-18.6,26.3-43,26.3-69.8C406.2,118.6,358.7,71.1,300.1,71.1z M329,344.9l-10.3,15.5h-37.2l-10.3-15.5l0-3.8H329V344.9z
	 M329,321.8h-57.8l0-19.3h57.9L329,321.8z M365.4,234.2c-8.4,9.6-21.9,29-30.5,49h-69.7c-8.6-20-22.1-39.4-30.5-49
	c-13.9-15.9-21.4-36.1-21.4-57.1c-0.1-46.4,36.4-86.8,86.8-86.8c47.9,0,86.8,38.9,86.8,86.8C386.9,198.2,379.3,218.4,365.4,234.2z"
	/>
</svg>
